@startuml Analysis Architecture
    title Analysis Architecture

    package TicTacToeApp{
        package Views{
            boundary GameView
            boundary StartView
            boundary PlayView
            boundary UserPlayerView
            boundary MachinePlayerView
            boundary MessageView
            boundary PlayerView
            boundary ErrorView
            boundary GridView
            boundary ResumeView
            boundary PlayerCreateView

            GameView *--> StartView
            GameView *--> PlayView
            GameView *--> ResumeView

            PlayerView <|-- UserPlayerView
            PlayerView <|-- MachinePlayerView

            StartView ..> MessageView
                PlayerView ..> ErrorView
                PlayView ..> MessageView
            StartView ..> GridView
                GridView ..> MessageView
            StartView ..> PlayerCreateView
                PlayerCreateView ..> ErrorView
                PlayerCreateView ..> MessageView

            PlayView ..> PlayerView
            PlayView ..> GridView

            PlayerView ..> MessageView            

            ResumeView ..> GridView
            ResumeView ..> MessageView
        }
        Views ..> Models
        Views ..> Types

        package Models{
            entity Game
            entity Player
            entity MachinePlayer
            entity UserPlayer
            entity Grid
            entity Turn
            entity PlayerCreator

            Game *--> "2" Player
            Game *--> Grid
            Game *--> Turn
            Game ..> PlayerCreator

            Turn --> "2" Player
            
            Player --> Grid
            Player <|-- UserPlayer
            Player <|-- MachinePlayer

            PlayerCreator ..> Player
            PlayerCreator ..> UserPlayer
            PlayerCreator ..> MachinePlayer
            PlayerCreator ..> Grid

            UserPlayer --> Grid            
            MachinePlayer --> Grid
            
        }
        Models ..> Types
        
        package Types{
            entity Coordinate
            entity Token
            entity Error
            entity PlayerType
            entity ClosedInterval
            entity Direction

            Coordinate ..> ClosedInterval
            Coordinate ..> Direction
            Coordinate ..> Error
        }
    }
@enduml

@startuml Analysis Start
    left to right direction
    title Analysis Start

    actor "Player" as Actorr
    package TicTacToeApp{        
        boundary GameView
        boundary StartView
        boundary MessageView
        boundary PlayerView
        boundary ErrorView
        boundary GridView

        entity Game
        entity Grid
        entity Turn
        entity PlayerCreator

        Actorr --> GameView
        GameView --> StartView
            StartView --> MessageView
            StartView --> PlayerView
                PlayerView --> ErrorView
            StartView --> Game
                Game --> PlayerCreator
                Game --> Grid
                Game --> Turn
            StartView --> GridView
                GridView --> Game
                Grid --> MessageView            
    }
@enduml

@startuml Analysis Start Collaboration Diagram
    allowmixing
    title Analysis Start Collaboration Diagram

    actor "Player" as Actorr
    package TicTacToeApp{
        object ":GameView" as GameView{
        }
        object ":StartView" as StartView{
        }
        object ":MessageView" as MessageView{
        }
        object ":PlayerView" as PlayerView{
        }       
        object ":GridView" as GridView{
        }      
        object ":TokenView" as TokenView{
        }       
        object ":ErrorView" as ErrorView{
        }       
        
        object ":Game" as Game{
        }
        object ":PlayerCreator" as PlayerCreator{
        }
        object ":Grid" as Grid{
        }   
        object ":Turn" as Turn{
        }      


        Actorr ..> GameView : Start()
            GameView --> StartView : 1. Interact()
                StartView --> MessageView
                    note on link
                        2. WriteLine(Title)
                        3. WriteLine(SelectPlayers)
                    endnote
                StartView --> PlayerView
                    note on link
                        4. ReadPlayer()
                    endnote
                    PlayerView --> MessageView
                        note on link
                            5. GetMessage(SelectNumberPlayer)
                        endnote
                    PlayerView --> ErrorView
                        note on link
                            5.1 WriteLine(Error)
                        endnote
                        ErrorView --> MessageView
                            note on link
                                5.2 WriteLine(VerticalLine)
                            endnote
                StartView --> Game 
                    note on link
                        6. CreatePlayer(players)
                        8. NewGame
                    endnote
                    Game --> PlayerCreator
                        note on link
                            7. CreatePlayer(players)
                        endnote
                    StartView --> GridView
                        note on link
                            11. Show(game)
                        endnote
                        GridView --> MessageView
                            note on link
                                12. WriteLine(HorizontalLine)
                                13. Write(Square)
                                17. WriteLine(HorizontalLine)
                            endnote
                        GridView --> Game
                            note on link
                                14. GetToken(Coordinate)
                            endnote
                            Game --> Grid
                                note on link
                                    9. NewGame()
                                    15. GetToken(Coordinate)
                                endnote
                            Game --> Turn
                                note on link
                                    10. NewGame()
                                endnote
                        GridView --> TokenView
                            note on link
                                16. Write(Token)
                            endnote
                    
    }
@enduml

@startuml Analsysis Play
    left to right direction
    title Analsysis Play

actor "Player" as Actorr
package TicTacToeApp{        
    boundary GameView
    boundary PlayView
    boundary MessageView
    boundary PlayerView
    boundary ErrorView
    boundary GridView
    boundary CoordinateView

    entity Game
    entity Grid
    entity Turn
    entity Player
    entity Error
    entity Coordinate

    Actorr --> GameView         
        GameView --> PlayView
        PlayView --> Game
            Game --> Turn
        PlayView --> MessageView
        PlayView --> PlayerView
            PlayerView --> Game
                Game --> Player
                    Player --> Coordinate
                    Player --> Error
                    Player --> Grid
            PlayerView --> MessageView
            PlayerView --> CoordinateView
            PlayerView --> ErrorView
        PlayView --> GridView
            GridView --> Game
                Game --> Grid
        
}
@enduml

@startuml Analysis Play Collaboration Diagram
    allowmixing
    title Analysis Play Collaboration Diagram

actor "Player" as Actorr
package TicTacToeApp{

    object ":GameView" as GameView{
    }
    object ":PlayView" as PlayView{
    }
    object ":MessageView" as MessageView{
    }
    object ":PlayerView" as PlayerView{
    }
    object ":GridView" as GridView{
    }
    object ":CoordinateView" as CoordinateView{
    }
    object ":ErrorView" as ErrorView{
    }
    object ":TokenView" as TokenView{
    }


    object ":Game" as Game{
    }
    object ":Turn" as Turn{
    }
    object ":Player" as Player{
    }
    object ":Grid" as Grid{
    }
    object ":Coordinate" as Coordinate{
    }
    object ":Error" as Error{
    }
    object ":Direction" as Direction{
    }
    
}

Actorr --> GameView : Play()
    GameView --> PlayView : Interact()
        PlayView --> Game  
            note on link
                Next()
                GetCurrentTurn()
                IsTicTacToe(Token)
            endnote
            Game --> Turn
                note on link
                    Next()
                    GetCurrentTurn()
                endnote
            Game --> Grid
                note on link
                    IsTicTacToe(Token)
                    GetToken(Coordinate)
                endnote
                Grid --> Coordinate
                    note on link
                        GetDirections(Coordinate)
                    endNote
                    Coordinate --> Direction : GetDirection()
        PlayView --> MessageView
            note on link
                WriteLine(Turn)
                WriteLine(WinnerMessage)
            endnote
        PlayView --> PlayerView : Interact()
            PlayerView --> Game
                note on link
                    HasToken()
                    CheckErrorToPutToken(Coordinate)
                    PutToken(Coordinate)
                    MoveToken(origin, target)
                    CheckOriginErrorToMoveToken(Coordinate)
                    CheckTargetnErrorToMoveToken(origin, target)
                endnote
                Game --> Player
                    note on link
                        HasToken()
                        CheckErrorToPutToken(Coordinate)
                        PutToken(Coordinate)
                        MoveToken(origin, target)
                        CheckOriginErrorToMoveToken(Coordinate)
                        CheckTargetnErrorToMoveToken(origin, target)
                    endnote
                    Player --> Grid
                        note on link
                            IsEmpty(Coordinate)
                            PutToken(Coordinate)
                            IsOccupied(Coordinate)
                            MoveToken(origin, target)
                        endnote
                    Player --> Coordinate : AreEquals(origin, target)
                    Player --> Error : GetError()
            PlayerView --> MessageView
                note on link
                    WriteLine(EnterCoordinateToPut)
                    WriteLine(EnterOriginCoordinateToMove)
                    WriteLine(EnterTargetnCoordinateToMove)
                endnote
            PlayerView --> CoordinateView
                note on link
                    Read(Game)
                endnote
                CoordinateView --> Game
                    note on link
                        CheckErrorToReadValid(Coordinate)
                    endnote
                    Game --> Coordinate
                        note on link
                            CheckErrorToReadValid(Coordinate)
                        endnote
                        Coordinate --> Error : GetError()
                CoordinateView --> ErrorView : WriteLine(Error)
            PlayerView --> ErrorView : WriteLine(Error)
        PlayView --> GridView 
            note on link
                Show()
            endnote
            GridView --> MessageView
                note on link
                    WriteLine(VerticalLine)
                endnote
            GridView --> Game
                note on link
                    GetToken(Coordinate)
                endnote
            GridView --> TokenView
                note on link
                    Write(Token)
                endnote     
@enduml

@startuml Analysis Resume
    left to right direction
    title Analysis Resume

    actor "Player" as Actorr
    package TicTacToeApp{        
        boundary GameView
        boundary ResumeView
        boundary YesNotDialog
        boundary GridView

        entity Message

        Actorr --> GameView
        GameView --> ResumeView        
            ResumeView --> Message
            ResumeView --> YesNotDialog
            ResumeView --> GridView
    }
@enduml

@startuml Analysis Resume Collaboration Diagram
    allow_mixing
    title Analysis Resume Collaboration Diagram

actor "Player" as Actorr
package TicTacToeApp{        
    object ":GameView" as GameView{
    }    
    object ":ResumeView" as ResumeView{
    }    
    object ":YesNotDialog" as YesNotDialog{
    }
    object ":GridView" as GridView{
    }

    object ":Message" as Message{
    }    

    Actorr --> GameView : Resume()
        GameView --> ResumeView : Interact()
            ResumeView --> Message : GetMessage(Resume)
            ResumeView --> YesNotDialog : Read(outMessage)\nIsAffirmative()
            ResumeView --> GridView : Clear()
}
@enduml

@startuml Analysis Views
    title Analysis 

    package TicTacToeApp{
        namespace Views{
            class GameViews{
                ~GameViews(Game)
                ~Start()
            }

            class StartView{
                ~StartView(Game)
                ~Interact()
            }

            class PlayView{
                ~PlayView(Game)
                ~Interact()
            }

            class ResumeView{
                ~ResumeView(Game)
                ~Interact()
            }

            class PlayerView{
                ~ReadPlayers()
                ~Interact(Game)
            }

            class GridView{
                ~GridView()
                ~Show(Game)
                ~Clear()
            }

            class TokenView{
                ~TokenView()
                ~Write(Token)
            }

            class ErrorView{
                ~ErrorView()
                ~WriteLine(Error)
            }

            class YesNotDialog{
                ~YesNotDialog()
                ~Read(outString)
                ~IsAffirmative() : boolean
            }

            enum MessageView{
                ~Title
                ~SelectNumberPlayers
                ~VerticalLine
                ~Square
                ~CurrentTurn
                ~EnterCoodinateToPut
                ~EnterOriginCoodinateToMove
                ~EnterTargetCoodinateToMove
                ~Winner
                ~Resume
                ~MessageView()
                ~Write(Message)
                ~WriteLine(Message)
                ~GetMessage(Message) : string
            }
        }    

        namespace Models{
            class Game{}
            enum Error{}
            enum Token{}
        }
    }

    Views.GameViews --> Models.Game
    Views.GameViews *--> Views.StartView    
    Views.GameViews *--> Views.PlayView    

    Views.StartView --> Models.Game
    Views.StartView ..> Views.MessageView
    Views.StartView ..> Views.PlayerView
    Views.StartView ..> Views.GridView
    
    Views.PlayView --> Models.Game
    Views.PlayView ..> Views.MessageView
    Views.PlayView ..> Views.PlayerView
    Views.PlayView ..> Views.GridView
    
    Views.ResumeView --> Models.Game
    Views.ResumeView --> Models.Message
    Views.ResumeView --> Views.YesNotDialog
    Views.ResumeView ..> Views.GridView

    Views.PlayerView ..> Views.MessageView
    Views.PlayerView ..> Models.Error
    Views.PlayerView ..> Views.ErrorView
    Views.PlayerView ..> Models.Game

    Views.GridView ..> Models.Game
    Views.GridView ..> Views.MessageView
    Views.GridView ..> Views.TokenView

    Views.ErrorView ..> Models.Error

    Views.TokenView ..> Models.Token
@enduml

@startuml Analysis Models
    title Analysis 

    package TicTacToeApp{
        namespace Models{
            class Game{
                +Game()
                +CreatePlayers(players : int)
                +CheckErrorToReadPlayers(players) : Error
                +NewGame()
                +Next()
                +GetCurrentTurn() : Token
                +GetToken(Coordinate) : Token
                +GetPlayerType() : PlayerType
                +HasToken() : boolean
                +IsTicTacToe(Token) : boolean
                +PutToken(Coordinate)
                +CheckErrorToPutToken(Coordinate) : Error
                +MoveToken(origin, target)
                +CheckOriginErrorToMoveToken(Coordinate) : Error
                +CheckTargetErrorToMoveToken(origin, target) : Error
                +CheckErrorToReadValid(Coordinate) : Error
            }
            Game *--> Grid
            Game *--> Turn
            Game *--> "2" Player
            Game ..> PlayerCreator

            class PlayerCreator{
                ~instance : PlayerCreator { get: }
                -PlayerCreator()
                ~CreatePlayers(Grid, players) : Player
                ~CheckErrorToReadPlayers(players) : Error
            }
            PlayerCreator ..> Player
            PlayerCreator ..> UserPlayer
            PlayerCreator ..> MachinePlayer
            PlayerCreator ..> Grid

            class Player{
                -tokens : int
                ~Player(Grid, Token, PlayerType)
                ~GetToken() : Token
                ~GetPlayerType() : PlayerType
                ~HasToken() : boolean
                ~PutToken(Coordinate)
                ~CheckErrorToPutToken(Coordinate) : Error
                ~MoveToken(origin, target)
                ~CheckOriginErrorToMoveToken(Coordinate) : Error
                ~CheckTargetErrorToMoveToken(origin, target) : Error
            }
            Player <|-- UserPlayer
            Player <|-- MachinePlayer
            Player --> Grid

            class Turn{
                ~{static}MaxPlayers : int
                ~Turn(Player[])
                ~Next()
                ~GetCurrentTurn() : Token
            }
            Turn --> "2" Player

            class Grid{
                ~Grid()
                ~NewGame()
                ~GetToken(Coordinate)
                ~PutToken(Coordinate)
                ~MoveToken(origin, target)
                ~IsEmpty(Coordinate) : boolean
                ~IsOccupued(Coordinate, Token) : boolean
                ~IsTicTacToe(Token) : boolean
                -GetDirections(Token) : List<Direction>
                -GetCoordinates(Token) : List<Coordinate>
            }

            namespace Types{
                enum PlayerType{
                    +UserPlayer
                    +MachinePlayer
                }

                class Coordinate{
                    -row : int
                    -colunm : int
                    +Coordinate()
                    +Coordinate(row, colunm)
                    ~CheckErrorToReadValid(Coordinate) : Error
                    ~Equals(Coordinate) : boolean
                    ~Equals(origin, target) : boolean
                    ~GetDirection(Coordinate) : Direction
                    -InHorizontal(Coordinate) : boolean
                    -InVertical(Coordinate) : boolean
                    -InMainDiagonl() : boolean
                    -InInverseDiagonal() : boolean
                }

                class ClosedInterval{
                    -min : int
                    -max : int
                    ~ClosedInterval(min, max)
                    ~IsValid(value) : boolean
                }

                enum Direction{
                    +Horizontal
                    +Vertical
                    +MainDiagonal
                    +InverseDiagonal
                    +Null
                }

                enum Error{    
                    +InvalidPlayerSelect
                    +SquareIsOccupied
                    +NotOwned
                    +OriginAndTargetCoordinateCantNotBeSame
                    +InvalidCoordinate
                    +Null
                    +{static}IsNull(Error) : boolean
                }

                enum Token{
                    +X,
                    +O,
                    +Null
                    +{static}IsNull(Token) : boolean
                }
            }
        }
    }

    Models.Game .. Models.Types.Coordinate
    Models.Game .. Models.Types.Error
    
    Models.Player --> Models.Types.PlayerType 
    Models.Player --> Models.Types.Token 
    Models.Player ..> Models.Types.Coordinate   
    Models.Player ..> Models.Types.Error   

    Models.PlayerCreator ..> Models.Types.PlayerType   
    Models.PlayerCreator ..> Models.Types.Token    

    Models.Grid ..> Models.Types.Coordinate

    Models.Types.Coordinate ..> Models.Types.Error
    Models.Types.Coordinate ..> Models.Types.Direction
    Models.Types.Coordinate ..> Models.Types.ClosedInterval

@enduml

@startuml Analysis Package
    title Analysis Package

@enduml

